<svg xmlns="http://www.w3.org/2000/svg" xmlns:xlink="http://www.w3.org/1999/xlink" viewBox="0 0 100 100" xml:space="preserve">
<path fill="#ccd6dd" d="M83.9,40c-0.6-1.9-2.3-3.1-4.3-3.1H60.3l-6-18.4c-0.6-1.9-2.3-3.1-4.3-3.1c-2,0-3.7,1.3-4.3,3.1l-6,18.4
		H20.4c-1.9,0-3.7,1.3-4.3,3.1c-0.6,1.9,0.1,3.9,1.6,5l15.7,11.4l-6,18.4c-0.6,1.9,0.1,3.9,1.6,5c1.6,1.1,3.7,1.1,5.3,0L50,68.4
		l15.7,11.4c0.8,0.6,1.7,0.9,2.6,0.9c0.9,0,1.9-0.3,2.6-0.9c1.6-1.1,2.2-3.2,1.6-5l-6-18.4L82.3,45C83.8,43.8,84.5,41.8,83.9,40z"/>
</svg>
