<svg xmlns="http://www.w3.org/2000/svg" xmlns:xlink="http://www.w3.org/1999/xlink" viewBox="0 0 100 100" xml:space="preserve">
<path fill="#ccd6dd" d="M80.3,48c-7.5-7.3-18.5-7.1-28.4-6.8V29.9c0-1.9-1.1-3.7-2.8-4.6c-1.7-0.9-3.8-0.7-5.4,0.4l-27,19.1
		c-1.4,1-2.2,2.6-2.2,4.3c0,1.7,0.9,3.3,2.3,4.3l27,18c0.9,0.6,1.9,0.9,2.9,0.9c0.8,0,1.7-0.2,2.5-0.6c1.7-0.9,2.8-2.7,2.8-4.6V55.6
		c0,0,0.1,0,0.1,0c7.4-0.2,15-0.4,18.2,2.7c1.8,1.7,2.7,5,2.7,9.8c0,4,3.2,7.2,7.2,7.2s7.2-3.2,7.2-7.2C87.4,59.2,85.1,52.6,80.3,48
		z"/>
</svg>
