<svg xmlns="http://www.w3.org/2000/svg" xmlns:xlink="http://www.w3.org/1999/xlink" viewBox="0 0 100 100" xml:space="preserve">
<path fill="#ccd6dd" d="M49.3,69.8l-20.5,0V56h9.3c1.5,0,2.9-0.9,3.6-2.3c0.7-1.4,0.5-3-0.5-4.2l-16.2-20
			c-0.8-0.9-1.9-1.5-3.1-1.5c-1.2,0-2.3,0.6-3.1,1.6l-15.3,20c-0.9,1.2-1.1,2.8-0.4,4.2s2,2.2,3.5,2.2h9.1v20.4c0,3.6,3,6.6,6.6,6.6
			l27.1,0c0,0,0,0,0,0c3.6,0,6.6-3,6.6-6.6C55.9,72.8,52.9,69.8,49.3,69.8z"/>
<path fill="#ccd6dd" d="M96.4,57.4c-0.7-1.3-2-2.2-3.5-2.2h-9.1V34.8c0-3.6-3-6.6-6.6-6.6l-27.1,0c0,0,0,0,0,0
			c-3.6,0-6.6,3-6.6,6.6c0,3.6,3,6.6,6.6,6.6l20.5,0v13.8h-9.3c-1.5,0-2.9,0.9-3.6,2.3c-0.7,1.4-0.5,3,0.5,4.2l16.2,20
			c0.8,0.9,1.9,1.5,3.1,1.5c0,0,0,0,0.1,0c1.2,0,2.3-0.6,3.1-1.6l15.3-20C96.9,60.4,97,58.8,96.4,57.4z"/>
</svg>
